PathFileType	4	(X/Y/Z)	intermediate\S1_nor_fast_left\tmpqolbj2xf.trc
DataRate	CameraRate	NumFrames	NumMarkers	Units	OrigDataRate	OrigDataStartFrame	OrigNumFrames
250.0	250.0	7	18	mm	250.0	3247	3710
Frame#	Time	c7			r_should			l_should			clavicle			r_upa			r_elb_l			r_elb_m			r_low			r_wri_l			r_wri_m			r_met			l_upa			l_elb_l			l_elb_m			l_low			l_wri_l			l_wri_m			l_met			
		X	Y	Z	X	Y	Z	X	Y	Z	X	Y	Z	X	Y	Z	X	Y	Z	X	Y	Z	X	Y	Z	X	Y	Z	X	Y	Z	X	Y	Z	X	Y	Z	X	Y	Z	X	Y	Z	X	Y	Z	X	Y	Z	X	Y	Z	X	Y	Z	
3247	12.984000	925.280640	1415.587646	163.819992	1027.657837	1351.109863	336.843964	967.658386	1360.253418	-32.095303	1073.558716	1309.706543	138.069229	1047.723755	1136.175415	369.849396	1077.420288	1035.377686	366.713654	997.517334	1019.245117	303.986053	1035.409668	905.388855	382.934174	1110.890869	815.212219	340.821808	1047.368286	802.129456	372.559296	1140.720093	726.706482	349.177277	982.835999	1149.189087	-88.821899	990.845215	1104.008179	-104.530930	979.195251	1040.304077	-21.083477	1101.954224	1082.900391	-62.107204	1148.192017	1186.072998	-39.905190	1185.271118	1127.752563	-17.285875	1209.678833	1236.919556	-28.186726	
3248	12.988000	925.004578	1415.587158	163.923233	1027.352051	1351.030762	336.935699	967.481140	1360.345703	-31.979889	1073.276489	1309.681885	138.143158	1047.464111	1136.185547	369.844299	1077.152222	1035.326660	366.766418	997.301086	1019.185669	303.985748	1035.171509	905.316345	382.954590	1110.735229	815.179321	340.919159	1047.165405	802.060730	372.576965	1140.582642	726.672913	349.305664	982.088684	1149.125732	-88.847710	990.099426	1103.861694	-104.861053	976.759216	1040.860474	-22.200119	1104.190552	1083.782837	-63.502937	1148.782471	1183.658813	-40.001717	1185.013794	1124.651001	-17.821413	1211.113403	1233.508789	-28.448841	
3249	12.992000	924.724365	1415.581665	164.033676	1027.033325	1350.949585	337.041199	967.329834	1360.432739	-31.857826	1073.000610	1309.648804	138.226822	1047.263184	1136.291992	369.770233	1076.875244	1035.266602	366.832123	997.067688	1019.109375	303.992615	1034.927124	905.234192	382.974609	1110.570312	815.140198	341.011841	1046.955933	801.985168	372.596161	1140.440186	726.635376	349.425720	981.285828	1149.539429	-89.182205	989.296082	1103.767334	-104.988899	975.383362	1040.762573	-22.850647	1104.378174	1082.736694	-64.405342	1149.426758	1181.255737	-40.225422	1184.740723	1121.557373	-18.365208	1212.514160	1230.051025	-28.679533	
3250	12.996000	924.465515	1415.567139	164.154343	1026.700562	1350.864136	337.150940	967.193665	1360.517090	-31.718653	1072.742554	1309.622070	138.326782	1046.956543	1136.254150	369.788757	1076.582886	1035.199951	366.893494	996.820068	1019.036987	303.997467	1034.683960	905.136841	382.998413	1110.397095	815.098572	341.100281	1046.740112	801.906616	372.615204	1140.299438	726.595886	349.540802	980.502380	1150.413330	-89.944542	988.488831	1103.681763	-105.057121	974.296631	1040.491089	-23.383219	1104.106567	1081.249268	-65.224869	1150.127563	1178.887695	-40.626595	1184.440186	1118.480469	-18.900381	1213.927124	1226.523926	-28.910793	
3251	13.000000	924.227051	1415.553833	164.261353	1026.361206	1350.772705	337.273834	967.075256	1360.598999	-31.576599	1072.499268	1309.593628	138.439682	1046.577881	1136.114990	369.916077	1076.290894	1035.122437	366.952576	996.577576	1018.939941	303.997681	1034.463013	905.014221	383.037537	1110.221680	815.052979	341.190857	1046.522949	801.825439	372.624542	1140.151611	726.552673	349.651337	979.784973	1150.631592	-90.227486	987.678711	1103.598145	-105.125824	973.292542	1040.167603	-23.861002	1103.705322	1079.627686	-66.012749	1150.719360	1176.423950	-40.790257	1184.096436	1115.408203	-19.392866	1215.448608	1222.892944	-29.502920	
3252	13.004000	923.997986	1415.529541	164.392563	1026.017700	1350.674683	337.402954	966.981995	1360.679443	-31.432741	1072.256592	1309.556030	138.557938	1046.145386	1135.872559	370.122742	1075.983765	1035.036621	367.017487	996.327515	1018.826965	304.012909	1034.271606	904.875916	383.102509	1110.033691	814.998657	341.286560	1046.308472	801.734863	372.633301	1139.992188	726.503845	349.761627	979.127441	1150.696655	-90.409126	986.884827	1103.526733	-105.195549	972.306335	1039.842285	-24.327593	1102.616699	1077.805542	-66.240601	1151.274170	1173.917969	-40.894714	1183.741821	1112.321655	-19.859756	1216.995361	1219.178955	-30.534843	
3253	13.008000	923.776001	1415.511597	164.532410	1025.685791	1350.573242	337.543793	966.914673	1360.751587	-31.289049	1072.022827	1309.506592	138.695892	1045.790771	1135.739136	370.226501	1075.663818	1034.934692	367.086517	996.049255	1018.728149	304.060638	1034.077637	904.744141	383.175232	1109.823730	814.929138	341.391724	1046.086792	801.631042	372.654053	1139.820557	726.452820	349.873322	978.431396	1150.793823	-90.499802	986.137634	1103.458984	-105.259956	971.332153	1039.518799	-24.791393	1100.650757	1075.727051	-65.738960	1151.827393	1171.375732	-40.981167	1183.362427	1109.220581	-20.334869	1218.231567	1215.866089	-30.989513	
